<svg width="32" height="32" viewBox="0 0 32 32" fill="none" xmlns="http://www.w3.org/2000/svg">
<path d="M12 16C13.5913 16 15.1174 15.3679 16.2426 14.2426C17.3679 13.1174 18 11.5913 18 10C18 8.4087 17.3679 6.88258 16.2426 5.75736C15.1174 4.63214 13.5913 4 12 4C10.4087 4 8.88258 4.63214 7.75736 5.75736C6.63214 6.88258 6 8.4087 6 10C6 11.5913 6.63214 13.1174 7.75736 14.2426C8.88258 15.3679 10.4087 16 12 16ZM2 28C2 28 0 28 0 26C0 24 2 18 12 18C22 18 24 24 24 26C24 28 22 28 22 28H2ZM22 7C22 6.73478 22.1054 6.48043 22.2929 6.29289C22.4804 6.10536 22.7348 6 23 6H31C31.2652 6 31.5196 6.10536 31.7071 6.29289C31.8946 6.48043 32 6.73478 32 7C32 7.26522 31.8946 7.51957 31.7071 7.70711C31.5196 7.89464 31.2652 8 31 8H23C22.7348 8 22.4804 7.89464 22.2929 7.70711C22.1054 7.51957 22 7.26522 22 7ZM23 12C22.7348 12 22.4804 12.1054 22.2929 12.2929C22.1054 12.4804 22 12.7348 22 13C22 13.2652 22.1054 13.5196 22.2929 13.7071C22.4804 13.8946 22.7348 14 23 14H31C31.2652 14 31.5196 13.8946 31.7071 13.7071C31.8946 13.5196 32 13.2652 32 13C32 12.7348 31.8946 12.4804 31.7071 12.2929C31.5196 12.1054 31.2652 12 31 12H23ZM27 18C26.7348 18 26.4804 18.1054 26.2929 18.2929C26.1054 18.4804 26 18.7348 26 19C26 19.2652 26.1054 19.5196 26.2929 19.7071C26.4804 19.8946 26.7348 20 27 20H31C31.2652 20 31.5196 19.8946 31.7071 19.7071C31.8946 19.5196 32 19.2652 32 19C32 18.7348 31.8946 18.4804 31.7071 18.2929C31.5196 18.1054 31.2652 18 31 18H27ZM27 24C26.7348 24 26.4804 24.1054 26.2929 24.2929C26.1054 24.4804 26 24.7348 26 25C26 25.2652 26.1054 25.5196 26.2929 25.7071C26.4804 25.8946 26.7348 26 27 26H31C31.2652 26 31.5196 25.8946 31.7071 25.7071C31.8946 25.5196 32 25.2652 32 25C32 24.7348 31.8946 24.4804 31.7071 24.2929C31.5196 24.1054 31.2652 24 31 24H27Z" fill="#112F53"/>
</svg>
