<svg width="32" height="32" viewBox="0 0 32 32" fill="none" xmlns="http://www.w3.org/2000/svg">
<path d="M11.514 2.14225C11.6267 2.20973 11.725 2.29875 11.8033 2.40423C11.8815 2.50971 11.9383 2.62958 11.9702 2.75698C12.0022 2.88439 12.0087 3.01685 11.9894 3.14678C11.9702 3.27671 11.9255 3.40158 11.858 3.51425L6.766 12.0002H25.234L20.14 3.51425C20.0037 3.28669 19.9633 3.0143 20.0278 2.757C20.0924 2.4997 20.2564 2.27857 20.484 2.14225C20.7116 2.00593 20.9839 1.96558 21.2412 2.0301C21.4985 2.09461 21.7197 2.25869 21.856 2.48625L27.566 12.0002H31C31.2652 12.0002 31.5196 12.1056 31.7071 12.2931C31.8946 12.4807 32 12.735 32 13.0002V15.0002C32 15.2655 31.8946 15.5198 31.7071 15.7074C31.5196 15.8949 31.2652 16.0002 31 16.0002H1C0.734784 16.0002 0.48043 15.8949 0.292893 15.7074C0.105357 15.5198 0 15.2655 0 15.0002V13.0002C0 12.735 0.105357 12.4807 0.292893 12.2931C0.48043 12.1056 0.734784 12.0002 1 12.0002H4.434L10.14 2.48625C10.2075 2.37355 10.2965 2.27526 10.402 2.19698C10.5075 2.1187 10.6273 2.06197 10.7547 2.03002C10.8821 1.99808 11.0146 1.99155 11.1445 2.0108C11.2745 2.03006 11.3993 2.07472 11.512 2.14225H11.514ZM6.788 30.0002L3.828 18.0002H1.888L4.938 30.8522C5.01699 31.1794 5.20372 31.4705 5.46817 31.6788C5.73262 31.887 6.05941 32.0002 6.396 32.0002H25.608C25.9449 32.0007 26.2722 31.8876 26.537 31.6794C26.8019 31.4711 26.9889 31.1798 27.068 30.8522L30.112 18.0002H28.168L25.21 30.0002H6.79H6.788Z" fill="#8D4BD3"/>
</svg>
